<?xml version="1.0" encoding="iso-8859-1"?>
<!-- Generator: Adobe Illustrator 19.0.0, SVG Export Plug-In . SVG Version: 6.00 Build 0)  -->
<svg version="1.1" id="Layer_1" xmlns="http://www.w3.org/2000/svg" xmlns:xlink="http://www.w3.org/1999/xlink" x="0px" y="0px"
	 viewBox="0 0 512 512" style="enable-background:new 0 0 512 512;" xml:space="preserve">
<g>
	<path style="fill:#1D1D1B;" d="M104.091,512h303.813v-55.591H104.091V512z M119.646,471.964h272.703v24.482H119.646V471.964z"/>
	<rect x="120.11" y="111.868" style="fill:#1D1D1B;" width="15.555" height="336.3"/>
	<rect x="312.282" y="111.868" style="fill:#1D1D1B;" width="15.555" height="336.3"/>
	<rect x="376.335" y="111.868" style="fill:#1D1D1B;" width="15.555" height="336.3"/>
	<rect x="103.861" y="88.079" style="fill:#1D1D1B;" width="304.278" height="15.555"/>
	<rect x="160.148" y="143.9" style="fill:#1D1D1B;" width="15.555" height="40.035"/>
	<rect x="184.164" y="127.89" style="fill:#1D1D1B;" width="15.555" height="16.014"/>
	<polygon style="fill:#1D1D1B;" points="296.033,40.036 263.775,40.036 263.775,31.8 248.221,31.8 248.221,40.036 215.963,40.036 
		215.963,55.591 296.033,55.591 	"/>
	<polygon style="fill:#1D1D1B;" points="248.221,23.791 263.775,23.791 263.775,0 199.948,0 199.948,15.555 248.221,15.555 	"/>
	<rect x="224.201" y="63.826" style="fill:#1D1D1B;" width="15.555" height="16.014"/>
	<rect x="248.218" y="63.826" style="fill:#1D1D1B;" width="15.555" height="16.014"/>
	<rect x="272.244" y="63.826" style="fill:#1D1D1B;" width="15.555" height="16.014"/>
	<rect x="176.158" y="199.949" style="fill:#1D1D1B;" width="15.555" height="16.014"/>
	<rect x="176.158" y="336.072" style="fill:#1D1D1B;" width="15.555" height="48.043"/>
	<rect x="200.175" y="328.066" style="fill:#1D1D1B;" width="15.555" height="16.014"/>
	<polygon style="fill:#1D1D1B;" points="287.797,263.777 296.033,263.777 296.033,248.223 264.005,248.223 264.005,263.777 
		272.242,263.777 272.242,296.035 287.797,296.035 	"/>
	<rect x="240.212" y="151.906" style="fill:#1D1D1B;" width="15.555" height="16.014"/>
	<rect x="208.18" y="255.997" style="fill:#1D1D1B;" width="15.555" height="48.043"/>
	<rect x="224.201" y="223.975" style="fill:#1D1D1B;" width="15.555" height="24.016"/>
	<rect x="248.218" y="416.147" style="fill:#1D1D1B;" width="15.555" height="16.014"/>
	<rect x="264.239" y="392.12" style="fill:#1D1D1B;" width="15.555" height="16.014"/>
	<rect x="152.132" y="392.12" style="fill:#1D1D1B;" width="15.555" height="16.014"/>
	<rect x="344.303" y="127.89" style="fill:#1D1D1B;" width="15.555" height="48.043"/>
	<rect x="336.298" y="191.943" style="fill:#1D1D1B;" width="15.555" height="16.014"/>
	<rect x="352.309" y="207.954" style="fill:#1D1D1B;" width="15.555" height="16.014"/>
	<rect x="344.303" y="320.061" style="fill:#1D1D1B;" width="15.555" height="16.014"/>
	<rect x="352.309" y="344.077" style="fill:#1D1D1B;" width="15.555" height="16.014"/>
</g>
<g>
</g>
<g>
</g>
<g>
</g>
<g>
</g>
<g>
</g>
<g>
</g>
<g>
</g>
<g>
</g>
<g>
</g>
<g>
</g>
<g>
</g>
<g>
</g>
<g>
</g>
<g>
</g>
<g>
</g>
</svg>
