<?xml version="1.0" encoding="iso-8859-1"?>
<!-- Generator: Adobe Illustrator 19.0.0, SVG Export Plug-In . SVG Version: 6.00 Build 0)  -->
<svg version="1.1" id="Layer_1" xmlns="http://www.w3.org/2000/svg" xmlns:xlink="http://www.w3.org/1999/xlink" x="0px" y="0px"
	 viewBox="0 0 463 463" style="enable-background:new 0 0 463 463;" xml:space="preserve">
<g>
	<g>
		<path d="M455.5,312h-93l12.75-17h56.25c4.142,0,7.5-3.357,7.5-7.5s-3.358-7.5-7.5-7.5h-90.768c0.061-0.1,0.13-0.194,0.19-0.294
			L355.746,255H367.5c4.142,0,7.5-3.357,7.5-7.5s-3.358-7.5-7.5-7.5h-41.986l24.227-36.34c1.534-2.302,1.677-5.261,0.372-7.699
			S346.267,192,343.501,192h-16.329c5.097-10.007,7.829-21.17,7.829-32.5c0-4.143-3.358-7.5-7.5-7.5h-40.487
			c2.186-3.553,4.052-7.314,5.544-11.293l8.14-21.707h2.802c4.142,0,7.5-3.357,7.5-7.5s-3.358-7.5-7.5-7.5h-144
			c-4.142,0-7.5,3.357-7.5,7.5s3.358,7.5,7.5,7.5h2.802l8.14,21.707c1.492,3.979,3.358,7.74,5.544,11.293H135.5
			c-4.142,0-7.5,3.357-7.5,7.5c0,11.331,2.732,22.493,7.829,32.5H119.5c-2.766,0-5.308,1.522-6.612,3.961
			c-1.305,2.438-1.162,5.397,0.372,7.699L137.486,240H95.5c-4.142,0-7.5,3.357-7.5,7.5s3.358,7.5,7.5,7.5h11.754l14.824,24.706
			c0.06,0.1,0.129,0.194,0.19,0.294H31.5c-4.142,0-7.5,3.357-7.5,7.5s3.358,7.5,7.5,7.5h56.25l12.75,17h-93
			c-4.142,0-7.5,3.357-7.5,7.5s3.358,7.5,7.5,7.5h60.25l14.55,19.4c5.917,7.89,15.338,12.6,25.2,12.6h248
			c9.862,0,19.282-4.71,25.2-12.6l14.55-19.4h60.25c4.142,0,7.5-3.357,7.5-7.5S459.642,312,455.5,312z M284.678,119l-6.165,16.439
			c-2.326,6.202-5.766,11.762-10.241,16.561H194.73c-4.475-4.798-7.916-10.356-10.243-16.561L178.323,119H284.678z M319.514,167
			c-1.181,9.023-4.505,17.515-9.794,25H153.279c-5.289-7.485-8.613-15.977-9.794-25H319.514z M133.514,207h195.973l-22,33H155.514
			L133.514,207z M338.253,255l-10.194,16.989c-2.965,4.941-8.386,8.011-14.148,8.011H149.088c-5.762,0-11.183-3.069-14.148-8.011
			L124.746,255H338.253z M356.5,295l-7.8,10.4c-3.1,4.133-8.034,6.6-13.2,6.6h-208c-5.166,0-10.101-2.467-13.2-6.6l-7.8-10.4H356.5z
			 M368.7,337.4c-3.1,4.133-8.034,6.6-13.2,6.6h-248c-5.166,0-10.101-2.467-13.2-6.6L86.5,327h290L368.7,337.4z"/>
	</g>
</g>
<g>
</g>
<g>
</g>
<g>
</g>
<g>
</g>
<g>
</g>
<g>
</g>
<g>
</g>
<g>
</g>
<g>
</g>
<g>
</g>
<g>
</g>
<g>
</g>
<g>
</g>
<g>
</g>
<g>
</g>
</svg>
