<?xml version="1.0" encoding="iso-8859-1"?>
<!-- Generator: Adobe Illustrator 17.1.0, SVG Export Plug-In . SVG Version: 6.00 Build 0)  -->
<!DOCTYPE svg PUBLIC "-//W3C//DTD SVG 1.1//EN" "http://www.w3.org/Graphics/SVG/1.1/DTD/svg11.dtd">
<svg version="1.1" id="Capa_1" xmlns="http://www.w3.org/2000/svg" xmlns:xlink="http://www.w3.org/1999/xlink" x="0px" y="0px"
	 viewBox="0 0 387.84 387.84" style="enable-background:new 0 0 387.84 387.84;" xml:space="preserve">
<path d="M89.856,169.347l28.805-41.138c2.535-3.619,7.523-4.498,11.142-1.964c3.619,2.534,4.499,7.522,1.964,11.142l-28.805,41.138
	c-1.556,2.223-4.039,3.412-6.56,3.412c-1.585,0-3.185-0.469-4.582-1.447C88.202,177.955,87.322,172.966,89.856,169.347z
	 M294.879,85.77v185.92c0,4.418-3.582,8-8,8H47.767c-4.418,0-8-3.582-8-8V85.77c0-4.418,3.582-8,8-8h239.112
	C291.297,77.77,294.879,81.351,294.879,85.77z M278.879,93.77H55.767v169.92h223.112V93.77z M110.768,231.765
	c1.396,0.978,2.997,1.447,4.582,1.447c2.522,0,5.004-1.189,6.56-3.412L187,136.836c2.534-3.619,1.654-8.607-1.965-11.142
	c-3.619-2.535-8.607-1.653-11.142,1.965l-65.09,92.964C106.269,224.243,107.148,229.231,110.768,231.765z M316.781,215.606h2.447
	c4.418,0,8-3.582,8-8s-3.582-8-8-8h-2.447c-4.418,0-8,3.582-8,8S312.363,215.606,316.781,215.606z M316.781,181.125h2.447
	c4.418,0,8-3.582,8-8s-3.582-8-8-8h-2.447c-4.418,0-8,3.582-8,8S312.363,181.125,316.781,181.125z M349.939,263.689h-33.158
	c-4.418,0-8,3.582-8,8s3.582,8,8,8h33.158c4.418,0,8-3.582,8-8S354.357,263.689,349.939,263.689z M167.86,231.765
	c1.397,0.978,2.997,1.447,4.582,1.447c2.521,0,5.004-1.189,6.56-3.412l28.804-41.138c2.535-3.619,1.655-8.607-1.964-11.142
	c-3.62-2.533-8.607-1.654-11.142,1.965l-28.805,41.137C163.362,224.243,164.241,229.231,167.86,231.765z M29.639,336.828H8
	c-4.418,0-8,3.582-8,8s3.582,8,8,8h21.639c4.418,0,8-3.582,8-8S34.057,336.828,29.639,336.828z M0,314.448V43.012
	c0-4.418,3.582-8,8-8h371.838c4.418,0,8,3.582,8,8v271.437c0,4.418-3.582,8-8,8H8C3.582,322.448,0,318.867,0,314.448z M16,306.448
	h355.838V51.012H16V306.448z M379.84,336.828h-21.637c-4.418,0-8,3.582-8,8s3.582,8,8,8h21.637c4.418,0,8-3.582,8-8
	S384.258,336.828,379.84,336.828z M357.939,102.35c0,13.553-11.026,24.579-24.58,24.579c-13.553,0-24.578-11.026-24.578-24.579
	c0-13.554,11.025-24.58,24.578-24.58C346.913,77.77,357.939,88.796,357.939,102.35z M341.939,102.35c0-4.731-3.849-8.58-8.58-8.58
	c-4.73,0-8.578,3.849-8.578,8.58c0,4.73,3.848,8.579,8.578,8.579C338.091,110.929,341.939,107.08,341.939,102.35z M349.939,199.606
	h-2.447c-4.418,0-8,3.582-8,8s3.582,8,8,8h2.447c4.418,0,8-3.582,8-8S354.357,199.606,349.939,199.606z M349.939,165.125h-2.447
	c-4.418,0-8,3.582-8,8s3.582,8,8,8h2.447c4.418,0,8-3.582,8-8S354.357,165.125,349.939,165.125z M349.939,234.085h-33.158
	c-4.418,0-8,3.582-8,8s3.582,8,8,8h33.158c4.418,0,8-3.582,8-8S354.357,234.085,349.939,234.085z"/>
<g>
</g>
<g>
</g>
<g>
</g>
<g>
</g>
<g>
</g>
<g>
</g>
<g>
</g>
<g>
</g>
<g>
</g>
<g>
</g>
<g>
</g>
<g>
</g>
<g>
</g>
<g>
</g>
<g>
</g>
</svg>
