<?xml version='1.0' encoding='iso-8859-1'?>
<!DOCTYPE svg PUBLIC '-//W3C//DTD SVG 1.1//EN' 'http://www.w3.org/Graphics/SVG/1.1/DTD/svg11.dtd'>
<svg version="1.1" xmlns="http://www.w3.org/2000/svg" viewBox="0 0 457.894 457.894" xmlns:xlink="http://www.w3.org/1999/xlink" enable-background="new 0 0 457.894 457.894">
  <g>
    <path d="m322.692,0h-187.49c-4.143,0-7.5,3.358-7.5,7.5v442.894c0,4.142 3.357,7.5 7.5,7.5h187.49c4.143,0 7.5-3.358 7.5-7.5v-442.894c0-4.142-3.357-7.5-7.5-7.5zm-7.5,15v206.239h-172.49v-9.749h71.996c4.143,0 7.5-3.358 7.5-7.5s-3.357-7.5-7.5-7.5h-71.996v-181.49h172.49zm-172.49,427.894v-181.906h71.996c4.143,0 7.5-3.358 7.5-7.5s-3.357-7.5-7.5-7.5h-71.996v-9.749h172.49v206.655h-172.49z"/>
    <path d="m219.197,53.998h19.499c4.143,0 7.5-3.358 7.5-7.5s-3.357-7.5-7.5-7.5h-19.499c-4.143,0-7.5,3.358-7.5,7.5s3.357,7.5 7.5,7.5z"/>
  </g>
</svg>
